<svg xmlns="http://www.w3.org/2000/svg" width="32" height="32" viewBox="0 0 32 32">
  <title>Daily News</title>
  <defs>
    <linearGradient id="newsGradient" x1="0%" y1="0%" x2="100%" y2="100%">
      <stop offset="0%" style="stop-color:#2563eb;stop-opacity:1" />
      <stop offset="100%" style="stop-color:#1d4ed8;stop-opacity:1" />
    </linearGradient>
  </defs>
  <!-- Newspaper base -->
  <rect x="4" y="6" width="24" height="20" rx="2" ry="2" fill="url(#newsGradient)" stroke="#1e40af" stroke-width="0.5"/>
  <!-- Header line -->
  <rect x="7" y="9" width="18" height="2" rx="1" fill="white" opacity="0.9"/>
  <!-- Main article -->
  <rect x="7" y="13" width="10" height="2" rx="0.5" fill="white" opacity="0.8"/>
  <rect x="7" y="16" width="8" height="1" rx="0.5" fill="white" opacity="0.6"/>
  <rect x="7" y="18" width="9" height="1" rx="0.5" fill="white" opacity="0.6"/>
  <!-- Side article -->
  <rect x="19" y="13" width="6" height="1.5" rx="0.5" fill="white" opacity="0.7"/>
  <rect x="19" y="15.5" width="5" height="1" rx="0.5" fill="white" opacity="0.5"/>
  <rect x="19" y="17.5" width="4" height="1" rx="0.5" fill="white" opacity="0.5"/>
  <!-- Bottom articles -->
  <rect x="7" y="21" width="7" height="1" rx="0.5" fill="white" opacity="0.6"/>
  <rect x="16" y="21" width="9" height="1" rx="0.5" fill="white" opacity="0.6"/>
  <!-- RSS signal waves -->
  <circle cx="26" cy="8" r="1.5" fill="#f59e0b" opacity="0.8"/>
  <path d="M 24 6 Q 28 6 28 10" stroke="#f59e0b" stroke-width="1" fill="none" opacity="0.6"/>
  <path d="M 22 4 Q 30 4 30 12" stroke="#f59e0b" stroke-width="1" fill="none" opacity="0.4"/>
</svg>